# xmcd
#
# Track frame offsets:
#	150
#	11060
#	23240
#	36360
#	53575
#	66890
#	86382
#	107152
#	123625
#	136482
#	148212
#	159207
#	173317
#	188017
#	202512
#	220082
#	237950
#	250482
#	268525
#	279850
#
# Disc length: 3895 seconds
# Revision: 1
# Processed by: cddbd v1.5.2PL0 Copyright (c) Steve Scherf et al.
# Submitted via: dBpowerAMP V12.0
#
DISCID=0f0f3514
DTITLE=Johnny Cash - Johnny Cash Sings the Ballads of The True West [Remastered]
DYEAR=1965
DGENRE=Western
TTITLE0=Hiawatha's Vision
TTITLE1=The Road to Kaintuck
TTITLE2=The Shifting Whispering Sands (Part 1)
TTITLE3=The Ballad of Boot Hill
TTITLE4=I Ride an Old Paint
TTITLE5=Hardin Wouldn't Run
TTITLE6=Mr. Garfield
TTITLE7=The Streets of Laredo
TTITLE8=Johnny Reb
TTITLE9=A Letter from Home
TTITLE10=Bury Me Not on the Lone Prairie
TTITLE11=Mean as Hell
TTITLE12=Sam Hall
TTITLE13=25 Minutes to Go
TTITLE14=The Blizzard
TTITLE15=Sweet Betsy from Pike
TTITLE16=Green Grow the Lilacs
TTITLE17=Stampede
TTITLE18=The Shifting Whispering Sands (Part 2)
TTITLE19=Reflections
EXTD=
EXTT0=
EXTT1=
EXTT2=
EXTT3=
EXTT4=
EXTT5=
EXTT6=
EXTT7=
EXTT8=
EXTT9=
EXTT10=
EXTT11=
EXTT12=
EXTT13=
EXTT14=
EXTT15=
EXTT16=
EXTT17=
EXTT18=
EXTT19=
PLAYORDER=
